<mxfile host="app.diagrams.net" modified="2022-04-07T10:03:52.557Z" agent="5.0 (Windows NT 10.0; Win64; x64) AppleWebKit/537.36 (KHTML, like Gecko) Chrome/100.0.4896.60 Safari/537.36 Edg/100.0.1185.29" etag="Ip_5cG8X0ndcENlQut5k" version="17.4.0" type="github">
  <diagram id="N5YAjj6k9JdcKqExU418" name="Page-1">
    <mxGraphModel dx="1669" dy="750" grid="0" gridSize="10" guides="1" tooltips="1" connect="1" arrows="1" fold="1" page="0" pageScale="1" pageWidth="827" pageHeight="1169" math="0" shadow="0">
      <root>
        <mxCell id="0" />
        <mxCell id="1" parent="0" />
        <mxCell id="cYo5Pk_QIZZrdre5_IzV-1" value="gy_cca" style="rounded=0;whiteSpace=wrap;html=1;" vertex="1" parent="1">
          <mxGeometry x="374" y="237" width="56" height="30" as="geometry" />
        </mxCell>
        <mxCell id="cYo5Pk_QIZZrdre5_IzV-5" value="欠费用户及欠费时间区间" style="whiteSpace=wrap;html=1;rounded=0;" vertex="1" parent="1">
          <mxGeometry x="217" y="379" width="101" height="50" as="geometry" />
        </mxCell>
        <mxCell id="cYo5Pk_QIZZrdre5_IzV-10" value="gy_ccr" style="rounded=0;whiteSpace=wrap;html=1;" vertex="1" parent="1">
          <mxGeometry x="135" y="237" width="56" height="30" as="geometry" />
        </mxCell>
        <mxCell id="cYo5Pk_QIZZrdre5_IzV-11" value="" style="endArrow=none;html=1;rounded=0;entryX=0;entryY=0.5;entryDx=0;entryDy=0;exitX=1;exitY=0.5;exitDx=0;exitDy=0;" edge="1" parent="1" source="cYo5Pk_QIZZrdre5_IzV-10" target="cYo5Pk_QIZZrdre5_IzV-1">
          <mxGeometry width="50" height="50" relative="1" as="geometry">
            <mxPoint x="259" y="382" as="sourcePoint" />
            <mxPoint x="309" y="332" as="targetPoint" />
          </mxGeometry>
        </mxCell>
        <mxCell id="cYo5Pk_QIZZrdre5_IzV-12" value="hop_by_hop_id&lt;br&gt;session_id" style="edgeLabel;html=1;align=center;verticalAlign=middle;resizable=0;points=[];" vertex="1" connectable="0" parent="cYo5Pk_QIZZrdre5_IzV-11">
          <mxGeometry x="-0.1787" relative="1" as="geometry">
            <mxPoint as="offset" />
          </mxGeometry>
        </mxCell>
        <mxCell id="cYo5Pk_QIZZrdre5_IzV-13" value="" style="endArrow=none;html=1;rounded=0;exitX=0.469;exitY=0.026;exitDx=0;exitDy=0;exitPerimeter=0;" edge="1" parent="1" source="cYo5Pk_QIZZrdre5_IzV-5">
          <mxGeometry width="50" height="50" relative="1" as="geometry">
            <mxPoint x="259" y="375" as="sourcePoint" />
            <mxPoint x="264" y="266" as="targetPoint" />
          </mxGeometry>
        </mxCell>
        <mxCell id="cYo5Pk_QIZZrdre5_IzV-14" value="gx" style="rounded=0;whiteSpace=wrap;html=1;" vertex="1" parent="1">
          <mxGeometry x="547" y="374" width="120" height="60" as="geometry" />
        </mxCell>
        <mxCell id="cYo5Pk_QIZZrdre5_IzV-15" value="" style="endArrow=none;html=1;rounded=0;entryX=0;entryY=0.5;entryDx=0;entryDy=0;exitX=1;exitY=0.5;exitDx=0;exitDy=0;" edge="1" parent="1" source="cYo5Pk_QIZZrdre5_IzV-5" target="cYo5Pk_QIZZrdre5_IzV-14">
          <mxGeometry width="50" height="50" relative="1" as="geometry">
            <mxPoint x="280" y="544" as="sourcePoint" />
            <mxPoint x="330" y="494" as="targetPoint" />
          </mxGeometry>
        </mxCell>
        <mxCell id="cYo5Pk_QIZZrdre5_IzV-16" value="diameter_subscription_id_mask" style="edgeLabel;html=1;align=center;verticalAlign=middle;resizable=0;points=[];" vertex="1" connectable="0" parent="cYo5Pk_QIZZrdre5_IzV-15">
          <mxGeometry x="-0.093" y="-2" relative="1" as="geometry">
            <mxPoint as="offset" />
          </mxGeometry>
        </mxCell>
        <mxCell id="cYo5Pk_QIZZrdre5_IzV-17" value="关联不上或者未在时间区间上的为正常数据" style="rounded=0;whiteSpace=wrap;html=1;" vertex="1" parent="1">
          <mxGeometry x="393" y="597" width="120" height="60" as="geometry" />
        </mxCell>
        <mxCell id="cYo5Pk_QIZZrdre5_IzV-18" value="" style="endArrow=none;html=1;rounded=0;exitX=0.5;exitY=0;exitDx=0;exitDy=0;" edge="1" parent="1" source="cYo5Pk_QIZZrdre5_IzV-17">
          <mxGeometry width="50" height="50" relative="1" as="geometry">
            <mxPoint x="324" y="497" as="sourcePoint" />
            <mxPoint x="452" y="414" as="targetPoint" />
          </mxGeometry>
        </mxCell>
        <mxCell id="cYo5Pk_QIZZrdre5_IzV-19" value="谓词下沉实现精准匹配" style="rounded=0;whiteSpace=wrap;html=1;" vertex="1" parent="1">
          <mxGeometry x="262" y="491" width="120" height="60" as="geometry" />
        </mxCell>
        <mxCell id="cYo5Pk_QIZZrdre5_IzV-20" value="" style="endArrow=classic;html=1;rounded=0;exitX=1;exitY=0.5;exitDx=0;exitDy=0;" edge="1" parent="1" source="cYo5Pk_QIZZrdre5_IzV-19">
          <mxGeometry width="50" height="50" relative="1" as="geometry">
            <mxPoint x="512" y="519" as="sourcePoint" />
            <mxPoint x="452" y="520" as="targetPoint" />
          </mxGeometry>
        </mxCell>
        <mxCell id="cYo5Pk_QIZZrdre5_IzV-21" value="Table" style="shape=table;startSize=30;container=1;collapsible=0;childLayout=tableLayout;fixedRows=1;rowLines=0;fontStyle=1;" vertex="1" parent="1">
          <mxGeometry x="-37" y="379" width="203" height="120" as="geometry" />
        </mxCell>
        <mxCell id="cYo5Pk_QIZZrdre5_IzV-22" value="" style="shape=tableRow;horizontal=0;startSize=0;swimlaneHead=0;swimlaneBody=0;top=0;left=0;bottom=0;right=0;collapsible=0;dropTarget=0;fillColor=none;points=[[0,0.5],[1,0.5]];portConstraint=eastwest;" vertex="1" parent="cYo5Pk_QIZZrdre5_IzV-21">
          <mxGeometry y="30" width="203" height="30" as="geometry" />
        </mxCell>
        <mxCell id="cYo5Pk_QIZZrdre5_IzV-23" value="1" style="shape=partialRectangle;html=1;whiteSpace=wrap;connectable=0;fillColor=none;top=0;left=0;bottom=0;right=0;overflow=hidden;pointerEvents=1;" vertex="1" parent="cYo5Pk_QIZZrdre5_IzV-22">
          <mxGeometry width="33" height="30" as="geometry">
            <mxRectangle width="33" height="30" as="alternateBounds" />
          </mxGeometry>
        </mxCell>
        <mxCell id="cYo5Pk_QIZZrdre5_IzV-24" value="&lt;span style=&quot;font-size: 11px ; text-align: center&quot;&gt;diameter_subscription_id_mask&lt;/span&gt;" style="shape=partialRectangle;html=1;whiteSpace=wrap;connectable=0;fillColor=none;top=0;left=0;bottom=0;right=0;align=left;spacingLeft=6;overflow=hidden;" vertex="1" parent="cYo5Pk_QIZZrdre5_IzV-22">
          <mxGeometry x="33" width="170" height="30" as="geometry">
            <mxRectangle width="170" height="30" as="alternateBounds" />
          </mxGeometry>
        </mxCell>
        <mxCell id="cYo5Pk_QIZZrdre5_IzV-25" value="" style="shape=tableRow;horizontal=0;startSize=0;swimlaneHead=0;swimlaneBody=0;top=0;left=0;bottom=0;right=0;collapsible=0;dropTarget=0;fillColor=none;points=[[0,0.5],[1,0.5]];portConstraint=eastwest;" vertex="1" parent="cYo5Pk_QIZZrdre5_IzV-21">
          <mxGeometry y="60" width="203" height="30" as="geometry" />
        </mxCell>
        <mxCell id="cYo5Pk_QIZZrdre5_IzV-26" value="2" style="shape=partialRectangle;html=1;whiteSpace=wrap;connectable=0;fillColor=none;top=0;left=0;bottom=0;right=0;overflow=hidden;" vertex="1" parent="cYo5Pk_QIZZrdre5_IzV-25">
          <mxGeometry width="33" height="30" as="geometry">
            <mxRectangle width="33" height="30" as="alternateBounds" />
          </mxGeometry>
        </mxCell>
        <mxCell id="cYo5Pk_QIZZrdre5_IzV-27" value="start_time" style="shape=partialRectangle;html=1;whiteSpace=wrap;connectable=0;fillColor=none;top=0;left=0;bottom=0;right=0;align=left;spacingLeft=6;overflow=hidden;" vertex="1" parent="cYo5Pk_QIZZrdre5_IzV-25">
          <mxGeometry x="33" width="170" height="30" as="geometry">
            <mxRectangle width="170" height="30" as="alternateBounds" />
          </mxGeometry>
        </mxCell>
        <mxCell id="cYo5Pk_QIZZrdre5_IzV-28" value="" style="shape=tableRow;horizontal=0;startSize=0;swimlaneHead=0;swimlaneBody=0;top=0;left=0;bottom=0;right=0;collapsible=0;dropTarget=0;fillColor=none;points=[[0,0.5],[1,0.5]];portConstraint=eastwest;" vertex="1" parent="cYo5Pk_QIZZrdre5_IzV-21">
          <mxGeometry y="90" width="203" height="30" as="geometry" />
        </mxCell>
        <mxCell id="cYo5Pk_QIZZrdre5_IzV-29" value="3" style="shape=partialRectangle;html=1;whiteSpace=wrap;connectable=0;fillColor=none;top=0;left=0;bottom=0;right=0;overflow=hidden;" vertex="1" parent="cYo5Pk_QIZZrdre5_IzV-28">
          <mxGeometry width="33" height="30" as="geometry">
            <mxRectangle width="33" height="30" as="alternateBounds" />
          </mxGeometry>
        </mxCell>
        <mxCell id="cYo5Pk_QIZZrdre5_IzV-30" value="end_time" style="shape=partialRectangle;html=1;whiteSpace=wrap;connectable=0;fillColor=none;top=0;left=0;bottom=0;right=0;align=left;spacingLeft=6;overflow=hidden;" vertex="1" parent="cYo5Pk_QIZZrdre5_IzV-28">
          <mxGeometry x="33" width="170" height="30" as="geometry">
            <mxRectangle width="170" height="30" as="alternateBounds" />
          </mxGeometry>
        </mxCell>
        <mxCell id="cYo5Pk_QIZZrdre5_IzV-31" value="" style="endArrow=none;dashed=1;html=1;rounded=0;entryX=0;entryY=0.62;entryDx=0;entryDy=0;entryPerimeter=0;exitX=1;exitY=0.25;exitDx=0;exitDy=0;" edge="1" parent="1" source="cYo5Pk_QIZZrdre5_IzV-21" target="cYo5Pk_QIZZrdre5_IzV-5">
          <mxGeometry width="50" height="50" relative="1" as="geometry">
            <mxPoint x="522" y="518" as="sourcePoint" />
            <mxPoint x="572" y="468" as="targetPoint" />
          </mxGeometry>
        </mxCell>
        <mxCell id="cYo5Pk_QIZZrdre5_IzV-33" value="1.&amp;gt;start_time&lt;br&gt;2.&amp;lt;end_time" style="shape=ext;double=1;rounded=0;whiteSpace=wrap;html=1;" vertex="1" parent="1">
          <mxGeometry x="110" y="540" width="120" height="80" as="geometry" />
        </mxCell>
      </root>
    </mxGraphModel>
  </diagram>
</mxfile>
